<svg width="1121" height="945" viewBox="0 0 1121 945" fill="none" xmlns="http://www.w3.org/2000/svg">
    <path fill-rule="evenodd" clip-rule="evenodd" d="M688.613 213.096C799.049 234.151 977.063 103.219 1052.93 186.147C1129.71 270.076 974.965 381.357 984.93 494.647C997.202 634.173 1134.12 751.394 1072.46 877.173C1010.18 1004.23 811.265 909.613 670.482 924.37C506.298 941.579 196.495 962.285 87.7134 838.173C-20.5262 714.68 59.4356 642.178 59.4823 478C59.529 313.918 75.046 105.856 215.092 20.24C366.245 -72.1657 514.566 179.913 688.613 213.096Z" fill="#FAF8FF"/>
    <g clip-path="url(#clip0)">
    <path d="M212.592 245C247.939 245 276.592 216.346 276.592 181C276.592 145.654 247.939 117 212.592 117C177.246 117 148.592 145.654 148.592 181C148.592 216.346 177.246 245 212.592 245Z" fill="#FF6584"/>
    <path d="M523.977 421.122C523.977 572.133 434.203 624.861 323.461 624.861C212.719 624.861 122.945 572.133 122.945 421.122C122.945 270.11 323.461 78 323.461 78C323.461 78 523.977 270.11 523.977 421.122Z" fill="#F2F2F2"/>
    <path d="M316.156 601.761L318.21 475.378L403.674 319.024L318.532 455.552L319.455 398.725L378.357 285.605L319.699 383.687L321.359 281.481L384.433 191.423L321.621 265.409L322.658 78L316.138 326.096L316.674 315.861L252.547 217.704L315.646 335.508L309.671 449.654L309.493 446.625L235.565 343.329L309.269 457.328L308.522 471.603L308.388 471.818L308.449 472.99L293.29 762.589H313.544L315.974 613.005L389.496 499.285L316.156 601.761Z" fill="#3F3D56"/>
    <path d="M1120.59 482.972C1120.59 606.582 1047.11 649.742 956.461 649.742C865.813 649.742 792.329 606.582 792.329 482.972C792.329 359.362 956.461 202.11 956.461 202.11C956.461 202.11 1120.59 359.362 1120.59 482.972Z" fill="#F2F2F2"/>
    <path d="M950.482 630.833L952.162 527.383L1022.12 399.4L952.426 511.154L953.182 464.639L1001.4 372.044L953.382 452.329L954.741 368.669L1006.37 294.952L954.954 355.514L955.804 202.11L950.467 405.188L950.906 396.811L898.414 316.464L950.064 412.893L945.173 506.327L945.027 503.847L884.514 419.294L944.844 512.608L944.232 524.293L944.123 524.469L944.173 525.428L931.764 762.478H948.343L950.332 640.037L1010.51 546.952L950.482 630.833Z" fill="#3F3D56"/>
    <path d="M554.592 786.513C860.885 786.513 1109.18 773.962 1109.18 758.479C1109.18 742.996 860.885 730.445 554.592 730.445C248.299 730.445 0 742.996 0 758.479C0 773.962 248.299 786.513 554.592 786.513Z" fill="#3F3D56"/>
    <path d="M892.445 809.598C944.905 809.598 987.433 807.449 987.433 804.797C987.433 802.145 944.905 799.995 892.445 799.995C839.984 799.995 797.456 802.145 797.456 804.797C797.456 807.449 839.984 809.598 892.445 809.598Z" fill="#3F3D56"/>
    <path d="M548.72 855.916C601.181 855.916 643.709 853.766 643.709 851.114C643.709 848.462 601.181 846.312 548.72 846.312C496.259 846.312 453.731 848.462 453.731 851.114C453.731 853.766 496.259 855.916 548.72 855.916Z" fill="#3F3D56"/>
    <path d="M287.945 823.249C407.798 823.249 504.959 818.337 504.959 812.279C504.959 806.22 407.798 801.309 287.945 801.309C168.091 801.309 70.9302 806.22 70.9302 812.279C70.9302 818.337 168.091 823.249 287.945 823.249Z" fill="#3F3D56"/>
    <path d="M97.084 723.27C140.714 723.27 176.084 687.9 176.084 644.27C176.084 600.639 140.714 565.27 97.084 565.27C53.4535 565.27 18.084 600.639 18.084 644.27C18.084 687.9 53.4535 723.27 97.084 723.27Z" fill="#2F2E41"/>
    <path d="M84.3543 706.124L60.356 705.841L59.8493 748.838L83.8477 749.121L84.3543 706.124Z" fill="#2F2E41"/>
    <path d="M132.351 706.69L108.353 706.407L107.846 749.404L131.844 749.687L132.351 706.69Z" fill="#2F2E41"/>
    <path d="M99.8405 749.81C99.8893 745.668 90.9752 742.205 79.9302 742.075C68.8853 741.944 59.8921 745.197 59.8432 749.338C59.7944 753.48 68.7086 756.943 79.7535 757.074C90.7984 757.204 99.7917 753.952 99.8405 749.81Z" fill="#2F2E41"/>
    <path d="M147.849 749.375C147.898 745.233 138.983 741.77 127.939 741.64C116.894 741.51 107.9 744.762 107.852 748.904C107.803 753.046 116.717 756.509 127.762 756.639C138.807 756.769 147.8 753.517 147.849 749.375Z" fill="#2F2E41"/>
    <path d="M99.3193 651.295C114.231 651.295 126.319 639.207 126.319 624.295C126.319 609.383 114.231 597.295 99.3193 597.295C84.4076 597.295 72.3193 609.383 72.3193 624.295C72.3193 639.207 84.4076 651.295 99.3193 651.295Z" fill="white"/>
    <path d="M99.3193 633.295C104.29 633.295 108.319 629.265 108.319 624.295C108.319 619.324 104.29 615.295 99.3193 615.295C94.3488 615.295 90.3193 619.324 90.3193 624.295C90.3193 629.265 94.3488 633.295 99.3193 633.295Z" fill="#3F3D56"/>
    <path d="M21.3221 569.904C15.2803 541.264 36.0097 512.64 67.6226 505.971C99.2355 499.302 129.761 517.114 135.803 545.754C141.844 574.395 120.824 584.684 89.2114 591.353C57.5985 598.022 27.364 598.545 21.3221 569.904Z" fill="#8685EF"/>
    <path d="M217.592 688.342C217.592 743.418 184.852 762.648 144.462 762.648C143.526 762.648 142.592 762.638 141.66 762.617C139.788 762.577 137.935 762.488 136.103 762.363C99.652 759.783 71.332 739.564 71.332 688.342C71.332 635.334 139.071 568.446 144.159 563.496L144.168 563.487C144.364 563.295 144.462 563.202 144.462 563.202C144.462 563.202 217.592 633.266 217.592 688.342Z" fill="#8685EF"/>
    <path d="M141.798 754.223L168.545 716.849L141.731 758.326L141.66 762.617C139.789 762.577 137.935 762.488 136.104 762.363L138.987 707.26L138.964 706.833L139.013 706.753L139.285 701.548L112.404 659.969L139.37 697.645L139.432 698.75L141.611 657.117L118.598 614.152L141.892 649.81L144.159 563.496L144.168 563.202V563.487L143.79 631.551L166.7 604.568L143.696 637.414L143.09 674.69L164.482 638.916L143.001 680.175L142.662 700.898L173.718 651.106L142.547 708.129L141.798 754.223Z" fill="#3F3D56"/>
    <path d="M712.485 722.415C756.116 722.415 791.485 687.046 791.485 643.415C791.485 599.785 756.116 564.415 712.485 564.415C668.855 564.415 633.485 599.785 633.485 643.415C633.485 687.046 668.855 722.415 712.485 722.415Z" fill="#2F2E41"/>
    <path d="M719.228 706.205L696.287 713.255L708.919 754.358L731.86 747.308L719.228 706.205Z" fill="#2F2E41"/>
    <path d="M765.109 692.109L742.168 699.159L754.8 740.262L777.741 733.212L765.109 692.109Z" fill="#2F2E41"/>
    <path d="M730.386 756.13C740.945 752.885 748.517 747.045 747.301 743.085C746.084 739.126 736.538 738.547 725.98 741.791C715.422 745.036 707.849 750.876 709.066 754.836C710.282 758.795 719.828 759.374 730.386 756.13Z" fill="#2F2E41"/>
    <path d="M775.975 741.073C786.534 737.828 794.106 731.988 792.89 728.029C791.673 724.069 782.127 723.49 771.569 726.735C761.01 729.98 753.438 735.82 754.654 739.779C755.871 743.739 765.417 744.318 775.975 741.073Z" fill="#2F2E41"/>
    <path d="M708.521 650.71C723.433 650.71 735.521 638.622 735.521 623.71C735.521 608.799 723.433 596.71 708.521 596.71C693.61 596.71 681.521 608.799 681.521 623.71C681.521 638.622 693.61 650.71 708.521 650.71Z" fill="white"/>
    <path d="M708.521 632.71C713.492 632.71 717.521 628.681 717.521 623.71C717.521 618.74 713.492 614.71 708.521 614.71C703.551 614.71 699.521 618.74 699.521 623.71C699.521 628.681 703.551 632.71 708.521 632.71Z" fill="#3F3D56"/>
    <path d="M617.651 595.701C603.161 570.268 614.173 536.685 642.245 520.692C670.318 504.699 704.821 512.351 719.311 537.784C733.8 563.218 716.92 579.428 688.847 595.421C660.775 611.414 632.141 621.134 617.651 595.701Z" fill="#8685EF"/>
    <path d="M571.592 678.257C571.592 728.814 541.538 746.466 504.462 746.466C503.603 746.466 502.746 746.457 501.889 746.438C500.172 746.401 498.47 746.319 496.789 746.205C463.328 743.837 437.332 725.276 437.332 678.257C437.332 629.597 499.513 568.198 504.184 563.654L504.192 563.645C504.372 563.469 504.462 563.384 504.462 563.384C504.462 563.384 571.592 627.7 571.592 678.257Z" fill="#8685EF"/>
    <path d="M502.016 738.732L526.569 704.425L501.955 742.499L501.889 746.438C500.172 746.401 498.47 746.319 496.789 746.205L499.435 695.623L499.415 695.23L499.46 695.157L499.709 690.38L475.034 652.211L499.787 686.797L499.844 687.811L501.844 649.594L480.719 610.153L502.102 642.886L504.184 563.654L504.192 563.384V563.645L503.844 626.125L524.875 601.356L503.759 631.507L503.202 665.725L522.839 632.886L503.121 670.76L502.81 689.782L531.317 644.076L502.703 696.421L502.016 738.732Z" fill="#3F3D56"/>
    <path d="M835.592 699.342C835.592 754.418 802.852 773.648 762.462 773.648C761.526 773.648 760.592 773.638 759.659 773.617C757.788 773.577 755.935 773.488 754.103 773.363C717.652 770.783 689.332 750.564 689.332 699.342C689.332 646.334 757.071 579.446 762.159 574.496L762.168 574.487C762.364 574.295 762.462 574.202 762.462 574.202C762.462 574.202 835.592 644.266 835.592 699.342Z" fill="#8685EF"/>
    <path d="M759.798 765.223L786.545 727.849L759.731 769.326L759.66 773.617C757.789 773.577 755.935 773.488 754.104 773.363L756.987 718.26L756.964 717.833L757.013 717.753L757.285 712.548L730.404 670.969L757.37 708.645L757.432 709.75L759.611 668.117L736.598 625.152L759.892 660.81L762.159 574.496L762.168 574.202V574.487L761.79 642.551L784.701 615.568L761.696 648.414L761.09 685.69L782.482 649.916L761.001 691.175L760.662 711.898L791.718 662.106L760.547 719.129L759.798 765.223Z" fill="#3F3D56"/>
    <path d="M717.502 690.707C720.437 684.519 706.837 671.925 687.127 662.576C667.416 653.228 649.058 650.665 646.123 656.853C643.189 663.041 656.788 675.636 676.499 684.984C696.21 694.333 714.567 696.895 717.502 690.707Z" fill="#2F2E41"/>
    <path d="M109.478 683.476C112.026 677.119 97.6758 665.386 77.4265 657.27C57.1773 649.154 38.6965 647.728 36.1486 654.084C33.6007 660.441 47.9504 672.174 68.1997 680.29C88.4489 688.406 106.93 689.833 109.478 683.476Z" fill="#2F2E41"/>
    </g>
    <defs>
    <clipPath id="clip0">
    <rect width="1120.59" height="777.916" fill="white" transform="translate(0 78)"/>
    </clipPath>
    </defs>
    </svg>
    