<svg width="1440" height="1024" viewBox="0 0 1440 1024" fill="none" xmlns="http://www.w3.org/2000/svg">
<g opacity="0.1">
<rect x="1785.05" y="1086.58" width="432" height="854" rx="72.5" transform="rotate(135 1785.05 1086.58)" stroke="#FAF8FF"/>
<rect x="1761.71" y="1078.8" width="409" height="809" rx="72.5" transform="rotate(135 1761.71 1078.8)" stroke="#FAF8FF"/>
<circle cx="1099.86" cy="705.446" r="34" transform="rotate(135 1099.86 705.446)" stroke="#FAF8FF"/>
<path d="M-96.5695 48.9985L241.062 -41.4697C255.321 -45.2903 269.979 -36.8252 273.8 -22.562L321.042 153.745C324.864 168.008 316.402 182.668 302.144 186.489L-35.4882 276.957C-49.747 280.778 -64.4045 272.312 -68.2263 258.049L-115.468 81.7421C-119.289 67.4788 -110.828 52.8191 -96.5695 48.9985Z" stroke="#F2F2F2"/>
<path d="M-79.5695 81.9985L258.062 -8.4697C272.321 -12.2903 286.979 -3.82524 290.8 10.438L338.042 186.745C341.864 201.008 333.402 215.668 319.144 219.489L-18.4882 309.957C-32.747 313.778 -47.4045 305.312 -51.2263 291.049L-98.4677 114.742C-102.289 100.479 -93.8283 85.8191 -79.5695 81.9985Z" stroke="#F2F2F2"/>
<path d="M115.827 114.25C117.681 121.168 113.37 128.367 106.152 130.301C98.9332 132.235 91.6009 128.156 89.747 121.238C87.8932 114.319 92.2039 107.121 99.4224 105.187C106.641 103.252 113.973 107.331 115.827 114.25Z" stroke="#F2F2F2"/>
<rect x="981.247" y="118.867" width="472.5" height="103.5" rx="49.25" transform="rotate(-15 981.247 118.867)" stroke="#FAF8FF" stroke-width="1.5"/>
<rect x="980.941" y="118.69" width="473" height="171" rx="49.5" transform="rotate(-15 980.941 118.69)" stroke="#FAF8FF"/>
<rect x="956.612" y="27.8935" width="287" height="63" rx="31.5" transform="rotate(-15 956.612 27.8935)" stroke="#FAF8FF"/>
</g>
<g opacity="0.1">
<path d="M-58.6521 901.412L635.759 1132.96L635.443 1133.91L-58.9684 902.361L-58.6521 901.412Z" stroke="#FAF8FF"/>
<path d="M189.546 531.54L189.387 532.014L189.862 532.172L436.672 614.471C438.802 615.181 440.771 616.304 442.467 617.776C444.163 619.247 445.553 621.038 446.557 623.046C447.561 625.055 448.16 627.241 448.319 629.481C448.477 631.721 448.194 633.97 447.483 636.1L334.791 974.059C333.357 978.361 330.272 981.917 326.216 983.944C322.159 985.972 317.464 986.305 313.162 984.871L-293.389 782.617C-297.691 781.182 -301.246 778.097 -303.274 774.041C-305.302 769.985 -305.635 765.289 -304.2 760.987L-191.508 423.029C-190.798 420.898 -189.675 418.929 -188.204 417.233C-186.732 415.537 -184.941 414.147 -182.933 413.143C-180.924 412.139 -178.738 411.541 -176.498 411.382C-174.258 411.223 -172.009 411.507 -169.879 412.217L77.9485 494.855L78.4229 495.013L78.581 494.539L80.1191 489.926L191.084 526.927L189.546 531.54Z" stroke="#FAF8FF"/>
<path d="M-173.555 443.776L420.671 641.921L309.035 976.712L-285.191 778.567L-173.555 443.776Z" stroke="#FAF8FF"/>
<path d="M133.926 528.821C132.89 531.93 129.528 533.61 126.419 532.573C123.31 531.537 121.63 528.175 122.666 525.066C123.703 521.957 127.064 520.277 130.174 521.313C133.283 522.35 134.963 525.711 133.926 528.821Z" stroke="#FAF8FF"/>
<path opacity="0.1" d="M-173.723 444.281L137.934 919.658L-285.191 778.567L-173.723 444.281Z" stroke="#FAF8FF"/>
<path d="M202.017 770.21L256.665 788.432L253.107 799.101L198.46 780.879L202.017 770.21Z" stroke="#FAF8FF"/>
<path d="M164.964 657.351L354.037 720.398L352.693 724.428L163.62 661.381L164.964 657.351Z" stroke="#FAF8FF"/>
<path d="M159.707 673.117L348.78 736.164L347.436 740.194L158.363 677.147L159.707 673.117Z" stroke="#FAF8FF"/>
<path d="M154.45 688.883L343.523 751.93L342.179 755.96L153.106 692.913L154.45 688.883Z" stroke="#FAF8FF"/>
<path d="M149.193 704.649L338.266 767.696L336.922 771.726L147.849 708.679L149.193 704.649Z" stroke="#FAF8FF"/>
<path d="M143.935 720.415L333.008 783.462L331.664 787.492L142.591 724.445L143.935 720.415Z" stroke="#FAF8FF"/>
<path d="M359.698 629.158L381.983 636.589L374.552 658.875L352.266 651.443L359.698 629.158Z" stroke="#FAF8FF"/>
<path d="M355.007 663.508L354.849 663.982L355.323 664.14L381.082 672.73L381.557 672.888L381.715 672.414L390.304 646.654L390.463 646.18L389.988 646.022L364.229 637.432L363.754 637.274L363.596 637.748L355.007 663.508ZM381.742 673.259L354.478 664.168L363.569 636.903L390.833 645.995L381.742 673.259Z" stroke="#FAF8FF"/>
<mask id="path-23-inside-1" fill="white">
<path d="M350.481 984.276L292.396 964.907L293.791 960.722C293.828 960.613 293.842 960.498 293.834 960.383C293.826 960.269 293.795 960.157 293.744 960.054C293.692 959.952 293.621 959.86 293.535 959.785C293.448 959.709 293.347 959.652 293.238 959.616L273.323 952.975C273.214 952.939 273.099 952.924 272.985 952.932C272.87 952.94 272.758 952.971 272.655 953.022C272.553 953.074 272.461 953.145 272.386 953.232C272.31 953.318 272.253 953.419 272.217 953.528L270.821 957.713L258.374 953.563L259.77 949.378C259.806 949.269 259.821 949.154 259.813 949.039C259.804 948.924 259.774 948.813 259.722 948.71C259.671 948.607 259.6 948.516 259.513 948.44C259.426 948.365 259.326 948.308 259.217 948.271L239.302 941.631C239.193 941.594 239.078 941.58 238.963 941.588C238.849 941.596 238.737 941.627 238.634 941.678C238.531 941.729 238.44 941.8 238.364 941.887C238.289 941.974 238.232 942.075 238.195 942.184L236.8 946.369L224.353 942.218L225.749 938.033C225.785 937.924 225.799 937.809 225.791 937.695C225.783 937.58 225.753 937.468 225.701 937.365C225.65 937.263 225.579 937.171 225.492 937.096C225.405 937.021 225.304 936.963 225.195 936.927L205.281 930.286C205.172 930.25 205.057 930.235 204.942 930.243C204.827 930.252 204.715 930.282 204.613 930.334C204.51 930.385 204.418 930.456 204.343 930.543C204.268 930.63 204.21 930.73 204.174 930.839L202.779 935.024L190.332 930.874L191.727 926.689C191.764 926.58 191.778 926.465 191.77 926.35C191.762 926.236 191.731 926.124 191.68 926.021C191.628 925.918 191.557 925.827 191.471 925.751C191.384 925.676 191.283 925.619 191.174 925.582L171.259 918.942C171.15 918.905 171.035 918.891 170.921 918.899C170.806 918.907 170.694 918.938 170.591 918.989C170.489 919.04 170.397 919.112 170.322 919.198C170.246 919.285 170.189 919.386 170.153 919.495L168.757 923.68L156.31 919.529L157.706 915.344C157.742 915.235 157.757 915.12 157.749 915.006C157.74 914.891 157.71 914.779 157.658 914.677C157.607 914.574 157.536 914.482 157.449 914.407C157.363 914.332 157.262 914.274 157.153 914.238L137.238 907.597C137.129 907.561 137.014 907.546 136.899 907.555C136.785 907.563 136.673 907.593 136.57 907.645C136.467 907.696 136.376 907.767 136.3 907.854C136.225 907.941 136.168 908.041 136.131 908.15L134.736 912.335L122.289 908.185L123.685 904C123.721 903.891 123.735 903.776 123.727 903.661C123.719 903.547 123.689 903.435 123.637 903.332C123.586 903.229 123.515 903.138 123.428 903.063C123.341 902.987 123.24 902.93 123.131 902.894L103.217 896.253C103.108 896.217 102.992 896.202 102.878 896.21C102.763 896.218 102.651 896.249 102.549 896.3C102.446 896.352 102.354 896.423 102.279 896.51C102.204 896.596 102.146 896.697 102.11 896.806L100.715 900.991L88.2677 896.841L89.6632 892.656C89.6995 892.547 89.714 892.432 89.7059 892.317C89.6978 892.202 89.6672 892.091 89.6158 891.988C89.5644 891.885 89.4933 891.793 89.4066 891.718C89.3198 891.643 89.219 891.585 89.1101 891.549L-66.8901 839.531C-66.9991 839.495 -67.1142 839.48 -67.2287 839.488C-67.3433 839.496 -67.4552 839.527 -67.5579 839.578C-67.6607 839.63 -67.7523 839.701 -67.8276 839.787C-67.9028 839.874 -67.9603 839.975 -67.9966 840.084L-69.3921 844.269L-81.8389 840.119L-80.4434 835.934C-80.4071 835.825 -80.3926 835.71 -80.4007 835.595C-80.4088 835.48 -80.4395 835.369 -80.4908 835.266C-80.5422 835.163 -80.6133 835.071 -80.7001 834.996C-80.7868 834.921 -80.8876 834.863 -80.9965 834.827L-100.911 828.186C-101.02 828.15 -101.136 828.136 -101.25 828.144C-101.365 828.152 -101.477 828.182 -101.579 828.234C-101.682 828.285 -101.774 828.356 -101.849 828.443C-101.924 828.53 -101.982 828.631 -102.018 828.74L-103.413 832.925L-115.86 828.774L-114.465 824.589C-114.428 824.48 -114.414 824.365 -114.422 824.251C-114.43 824.136 -114.461 824.024 -114.512 823.921C-114.564 823.819 -114.635 823.727 -114.721 823.652C-114.808 823.576 -114.909 823.519 -115.018 823.483L-134.933 816.842C-135.042 816.806 -135.157 816.791 -135.271 816.799C-135.386 816.807 -135.498 816.838 -135.601 816.889C-135.703 816.941 -135.795 817.012 -135.87 817.099C-135.946 817.185 -136.003 817.286 -136.039 817.395L-137.435 821.58L-149.882 817.43L-148.486 813.245C-148.45 813.136 -148.435 813.021 -148.443 812.906C-148.452 812.792 -148.482 812.68 -148.533 812.577C-148.585 812.474 -148.656 812.383 -148.743 812.307C-148.83 812.232 -148.93 812.175 -149.039 812.138L-168.954 805.498C-169.063 805.461 -169.178 805.447 -169.293 805.455C-169.407 805.463 -169.519 805.494 -169.622 805.545C-169.725 805.596 -169.816 805.667 -169.892 805.754C-169.967 805.841 -170.024 805.942 -170.061 806.051L-171.456 810.236L-183.903 806.085L-182.507 801.9C-182.471 801.791 -182.457 801.676 -182.465 801.562C-182.473 801.447 -182.503 801.335 -182.555 801.233C-182.606 801.13 -182.677 801.038 -182.764 800.963C-182.851 800.888 -182.952 800.83 -183.06 800.794L-202.975 794.153C-203.084 794.117 -203.2 794.102 -203.314 794.111C-203.429 794.119 -203.541 794.149 -203.643 794.201C-203.746 794.252 -203.838 794.323 -203.913 794.41C-203.988 794.497 -204.046 794.597 -204.082 794.706L-205.477 798.891L-217.924 794.741L-216.529 790.556C-216.492 790.447 -216.478 790.332 -216.486 790.217C-216.494 790.103 -216.525 789.991 -216.576 789.888C-216.627 789.785 -216.699 789.694 -216.785 789.619C-216.872 789.543 -216.973 789.486 -217.082 789.449L-236.997 782.809C-237.106 782.772 -237.221 782.758 -237.335 782.766C-237.45 782.774 -237.562 782.805 -237.665 782.856C-237.767 782.908 -237.859 782.979 -237.934 783.065C-238.01 783.152 -238.067 783.253 -238.103 783.362L-239.499 787.547L-251.946 783.397L-250.55 779.212C-250.514 779.103 -250.499 778.988 -250.507 778.873C-250.515 778.758 -250.546 778.646 -250.597 778.544C-250.649 778.441 -250.72 778.349 -250.807 778.274C-250.893 778.199 -250.994 778.141 -251.103 778.105L-271.018 771.464C-271.127 771.428 -271.242 771.414 -271.357 771.422C-271.471 771.43 -271.583 771.46 -271.686 771.512C-271.789 771.563 -271.88 771.634 -271.956 771.721C-272.031 771.808 -272.088 771.909 -272.125 772.018L-273.52 776.203L-311.69 763.475C-316.972 761.713 -322.737 762.123 -327.717 764.612C-332.697 767.101 -336.485 771.467 -338.246 776.749L-341.249 785.754C-343.01 791.036 -342.601 796.801 -340.111 801.781C-337.622 806.761 -333.256 810.548 -327.974 812.309L334.197 1033.11C339.479 1034.87 345.244 1034.46 350.224 1031.97C355.204 1029.48 358.991 1025.12 360.752 1019.84L363.755 1010.83C365.516 1005.55 365.107 999.784 362.618 994.804C360.128 989.824 355.763 986.037 350.481 984.276Z"/>
</mask>
<path d="M350.481 984.276L292.396 964.907L293.791 960.722C293.828 960.613 293.842 960.498 293.834 960.383C293.826 960.269 293.795 960.157 293.744 960.054C293.692 959.952 293.621 959.86 293.535 959.785C293.448 959.709 293.347 959.652 293.238 959.616L273.323 952.975C273.214 952.939 273.099 952.924 272.985 952.932C272.87 952.94 272.758 952.971 272.655 953.022C272.553 953.074 272.461 953.145 272.386 953.232C272.31 953.318 272.253 953.419 272.217 953.528L270.821 957.713L258.374 953.563L259.77 949.378C259.806 949.269 259.821 949.154 259.813 949.039C259.804 948.924 259.774 948.813 259.722 948.71C259.671 948.607 259.6 948.516 259.513 948.44C259.426 948.365 259.326 948.308 259.217 948.271L239.302 941.631C239.193 941.594 239.078 941.58 238.963 941.588C238.849 941.596 238.737 941.627 238.634 941.678C238.531 941.729 238.44 941.8 238.364 941.887C238.289 941.974 238.232 942.075 238.195 942.184L236.8 946.369L224.353 942.218L225.749 938.033C225.785 937.924 225.799 937.809 225.791 937.695C225.783 937.58 225.753 937.468 225.701 937.365C225.65 937.263 225.579 937.171 225.492 937.096C225.405 937.021 225.304 936.963 225.195 936.927L205.281 930.286C205.172 930.25 205.057 930.235 204.942 930.243C204.827 930.252 204.715 930.282 204.613 930.334C204.51 930.385 204.418 930.456 204.343 930.543C204.268 930.63 204.21 930.73 204.174 930.839L202.779 935.024L190.332 930.874L191.727 926.689C191.764 926.58 191.778 926.465 191.77 926.35C191.762 926.236 191.731 926.124 191.68 926.021C191.628 925.918 191.557 925.827 191.471 925.751C191.384 925.676 191.283 925.619 191.174 925.582L171.259 918.942C171.15 918.905 171.035 918.891 170.921 918.899C170.806 918.907 170.694 918.938 170.591 918.989C170.489 919.04 170.397 919.112 170.322 919.198C170.246 919.285 170.189 919.386 170.153 919.495L168.757 923.68L156.31 919.529L157.706 915.344C157.742 915.235 157.757 915.12 157.749 915.006C157.74 914.891 157.71 914.779 157.658 914.677C157.607 914.574 157.536 914.482 157.449 914.407C157.363 914.332 157.262 914.274 157.153 914.238L137.238 907.597C137.129 907.561 137.014 907.546 136.899 907.555C136.785 907.563 136.673 907.593 136.57 907.645C136.467 907.696 136.376 907.767 136.3 907.854C136.225 907.941 136.168 908.041 136.131 908.15L134.736 912.335L122.289 908.185L123.685 904C123.721 903.891 123.735 903.776 123.727 903.661C123.719 903.547 123.689 903.435 123.637 903.332C123.586 903.229 123.515 903.138 123.428 903.063C123.341 902.987 123.24 902.93 123.131 902.894L103.217 896.253C103.108 896.217 102.992 896.202 102.878 896.21C102.763 896.218 102.651 896.249 102.549 896.3C102.446 896.352 102.354 896.423 102.279 896.51C102.204 896.596 102.146 896.697 102.11 896.806L100.715 900.991L88.2677 896.841L89.6632 892.656C89.6995 892.547 89.714 892.432 89.7059 892.317C89.6978 892.202 89.6672 892.091 89.6158 891.988C89.5644 891.885 89.4933 891.793 89.4066 891.718C89.3198 891.643 89.219 891.585 89.1101 891.549L-66.8901 839.531C-66.9991 839.495 -67.1142 839.48 -67.2287 839.488C-67.3433 839.496 -67.4552 839.527 -67.5579 839.578C-67.6607 839.63 -67.7523 839.701 -67.8276 839.787C-67.9028 839.874 -67.9603 839.975 -67.9966 840.084L-69.3921 844.269L-81.8389 840.119L-80.4434 835.934C-80.4071 835.825 -80.3926 835.71 -80.4007 835.595C-80.4088 835.48 -80.4395 835.369 -80.4908 835.266C-80.5422 835.163 -80.6133 835.071 -80.7001 834.996C-80.7868 834.921 -80.8876 834.863 -80.9965 834.827L-100.911 828.186C-101.02 828.15 -101.136 828.136 -101.25 828.144C-101.365 828.152 -101.477 828.182 -101.579 828.234C-101.682 828.285 -101.774 828.356 -101.849 828.443C-101.924 828.53 -101.982 828.631 -102.018 828.74L-103.413 832.925L-115.86 828.774L-114.465 824.589C-114.428 824.48 -114.414 824.365 -114.422 824.251C-114.43 824.136 -114.461 824.024 -114.512 823.921C-114.564 823.819 -114.635 823.727 -114.721 823.652C-114.808 823.576 -114.909 823.519 -115.018 823.483L-134.933 816.842C-135.042 816.806 -135.157 816.791 -135.271 816.799C-135.386 816.807 -135.498 816.838 -135.601 816.889C-135.703 816.941 -135.795 817.012 -135.87 817.099C-135.946 817.185 -136.003 817.286 -136.039 817.395L-137.435 821.58L-149.882 817.43L-148.486 813.245C-148.45 813.136 -148.435 813.021 -148.443 812.906C-148.452 812.792 -148.482 812.68 -148.533 812.577C-148.585 812.474 -148.656 812.383 -148.743 812.307C-148.83 812.232 -148.93 812.175 -149.039 812.138L-168.954 805.498C-169.063 805.461 -169.178 805.447 -169.293 805.455C-169.407 805.463 -169.519 805.494 -169.622 805.545C-169.725 805.596 -169.816 805.667 -169.892 805.754C-169.967 805.841 -170.024 805.942 -170.061 806.051L-171.456 810.236L-183.903 806.085L-182.507 801.9C-182.471 801.791 -182.457 801.676 -182.465 801.562C-182.473 801.447 -182.503 801.335 -182.555 801.233C-182.606 801.13 -182.677 801.038 -182.764 800.963C-182.851 800.888 -182.952 800.83 -183.06 800.794L-202.975 794.153C-203.084 794.117 -203.2 794.102 -203.314 794.111C-203.429 794.119 -203.541 794.149 -203.643 794.201C-203.746 794.252 -203.838 794.323 -203.913 794.41C-203.988 794.497 -204.046 794.597 -204.082 794.706L-205.477 798.891L-217.924 794.741L-216.529 790.556C-216.492 790.447 -216.478 790.332 -216.486 790.217C-216.494 790.103 -216.525 789.991 -216.576 789.888C-216.627 789.785 -216.699 789.694 -216.785 789.619C-216.872 789.543 -216.973 789.486 -217.082 789.449L-236.997 782.809C-237.106 782.772 -237.221 782.758 -237.335 782.766C-237.45 782.774 -237.562 782.805 -237.665 782.856C-237.767 782.908 -237.859 782.979 -237.934 783.065C-238.01 783.152 -238.067 783.253 -238.103 783.362L-239.499 787.547L-251.946 783.397L-250.55 779.212C-250.514 779.103 -250.499 778.988 -250.507 778.873C-250.515 778.758 -250.546 778.646 -250.597 778.544C-250.649 778.441 -250.72 778.349 -250.807 778.274C-250.893 778.199 -250.994 778.141 -251.103 778.105L-271.018 771.464C-271.127 771.428 -271.242 771.414 -271.357 771.422C-271.471 771.43 -271.583 771.46 -271.686 771.512C-271.789 771.563 -271.88 771.634 -271.956 771.721C-272.031 771.808 -272.088 771.909 -272.125 772.018L-273.52 776.203L-311.69 763.475C-316.972 761.713 -322.737 762.123 -327.717 764.612C-332.697 767.101 -336.485 771.467 -338.246 776.749L-341.249 785.754C-343.01 791.036 -342.601 796.801 -340.111 801.781C-337.622 806.761 -333.256 810.548 -327.974 812.309L334.197 1033.11C339.479 1034.87 345.244 1034.46 350.224 1031.97C355.204 1029.48 358.991 1025.12 360.752 1019.84L363.755 1010.83C365.516 1005.55 365.107 999.784 362.618 994.804C360.128 989.824 355.763 986.037 350.481 984.276Z" stroke="#FAF8FF" stroke-width="2" mask="url(#path-23-inside-1)"/>
<path d="M340.143 596.927L581.1 677.274L580.784 678.222L339.827 597.875L340.143 596.927Z" stroke="#FAF8FF"/>
<path d="M542.532 653.299L568.146 661.84L559.605 687.454L533.992 678.913L542.532 653.299Z" stroke="#FAF8FF"/>
<path d="M550.251 666.437L550.093 666.912L550.567 667.07L580.016 676.89L580.491 677.048L580.649 676.574L590.469 647.124L590.627 646.65L590.153 646.492L560.703 636.672L560.229 636.514L560.071 636.988L550.251 666.437ZM580.793 677.653L549.488 667.214L559.927 635.909L591.232 646.348L580.793 677.653Z" stroke="#FAF8FF"/>
<path d="M720.83 933.549L720.672 934.023L721.146 934.181L722.928 934.776L708.572 977.828L706.79 977.234L706.316 977.076L706.158 977.55L628.361 1210.86C626.815 1215.49 624.371 1219.78 621.169 1223.47C617.967 1227.16 614.069 1230.19 609.697 1232.37C605.326 1234.56 600.567 1235.86 595.692 1236.21C590.818 1236.55 585.923 1235.94 581.287 1234.39L450.322 1190.72C445.686 1189.17 441.4 1186.73 437.708 1183.53C434.017 1180.32 430.992 1176.43 428.807 1172.06C426.622 1167.68 425.319 1162.93 424.973 1158.05C424.627 1153.18 425.245 1148.28 426.791 1143.64L539.872 804.52C541.418 799.884 543.862 795.598 547.064 791.906C550.267 788.214 554.165 785.19 558.536 783.005C562.907 780.82 567.666 779.517 572.541 779.171C577.416 778.825 582.311 779.443 586.947 780.989L717.911 824.659C722.547 826.205 726.833 828.649 730.525 831.851C734.216 835.053 737.241 838.951 739.426 843.323C741.611 847.694 742.914 852.453 743.26 857.327C743.606 862.202 742.988 867.097 741.442 871.733L720.83 933.549Z" stroke="#FAF8FF"/>
<path d="M733.122 871.296L620.206 1209.93C617.886 1216.89 612.896 1222.64 606.334 1225.92C599.771 1229.2 592.174 1229.74 585.213 1227.43L453.617 1183.54C446.657 1181.22 440.904 1176.23 437.625 1169.67C434.345 1163.1 433.808 1155.51 436.13 1148.55L549.046 809.916C549.046 809.915 549.046 809.915 549.046 809.915C551.367 802.957 556.357 797.205 562.919 793.925C569.48 790.645 577.076 790.106 584.035 792.425C584.035 792.425 584.035 792.425 584.035 792.425L599.315 797.521C598.081 799.125 597.21 800.982 596.768 802.964C596.273 805.185 596.331 807.494 596.938 809.688C597.545 811.881 598.683 813.892 600.25 815.542C601.817 817.193 603.766 818.432 605.925 819.152L680.954 844.17C683.113 844.891 685.416 845.069 687.66 844.689C689.904 844.309 692.02 843.384 693.822 841.994C695.624 840.603 697.057 838.791 697.994 836.717C698.829 834.867 699.248 832.859 699.223 830.835L715.632 836.306C722.591 838.628 728.343 843.618 731.623 850.179C734.902 856.741 735.442 864.336 733.122 871.296Z" stroke="#FAF8FF"/>
<path d="M539.022 925.017L672.061 969.378L670.717 973.408L537.678 929.047L539.022 925.017Z" stroke="#FAF8FF"/>
<path d="M533.764 940.783L666.803 985.144L665.46 989.174L532.421 944.813L533.764 940.783Z" stroke="#FAF8FF"/>
<path d="M528.508 956.549L661.547 1000.91L660.203 1004.94L527.164 960.579L528.508 956.549Z" stroke="#FAF8FF"/>
<path d="M523.25 972.314L656.289 1016.68L654.945 1020.71L521.906 976.345L523.25 972.314Z" stroke="#FAF8FF"/>
<path d="M517.993 988.08L651.032 1032.44L649.688 1036.47L516.649 992.111L517.993 988.08Z" stroke="#FAF8FF"/>
<path d="M609.509 875.052L631.794 882.483L624.363 904.768L602.077 897.337L609.509 875.052Z" stroke="#FAF8FF"/>
<path d="M633.981 919.658L634.455 919.816L634.613 919.342L643.205 893.576L643.363 893.102L642.889 892.944L617.123 884.352L616.649 884.194L616.491 884.669L607.899 910.434L607.741 910.908L608.215 911.066L633.981 919.658ZM634.639 920.183L607.374 911.092L616.466 883.827L643.73 892.919L634.639 920.183Z" stroke="#FAF8FF"/>
<path opacity="0.1" d="M436.13 1148.55L496.605 967.185L577.701 1090.88L579.099 1093.01L579.099 1093.01L594.29 1116.18L594.291 1116.18L595.707 1118.35L595.707 1118.35L632.188 1173.99L620.206 1209.93C617.886 1216.89 612.896 1222.64 606.334 1225.92C599.772 1229.2 592.174 1229.74 585.214 1227.43L453.617 1183.54C446.657 1181.22 440.905 1176.23 437.625 1169.67C434.346 1163.1 433.808 1155.51 436.13 1148.55Z" stroke="#FAF8FF"/>
<path d="M-0.639509 1046.72L-0.639331 1046.72C6.50686 1025.21 4.82814 1001.74 -5.30717 981.468C-15.4425 961.192 -33.2067 945.764 -54.7026 938.57L-54.8613 939.044L-54.7031 938.569C-70.7451 933.22 -88.013 932.748 -104.323 937.213C-120.634 941.678 -135.254 950.879 -146.335 963.652C-157.416 976.426 -164.46 992.199 -166.577 1008.98C-168.693 1025.75 -165.788 1042.78 -158.227 1057.91C-150.666 1073.03 -138.789 1085.58 -124.099 1093.95C-109.409 1102.33 -92.5649 1106.16 -75.6971 1104.96C-58.8292 1103.77 -42.695 1097.6 -29.3349 1087.23C-15.9748 1076.86 -5.9887 1062.77 -0.639509 1046.72ZM-109.112 1101.74C-125.341 1096.33 -139.601 1086.22 -150.089 1072.71C-160.577 1059.19 -166.821 1042.87 -168.032 1025.8C-169.243 1008.74 -165.367 991.696 -156.893 976.834C-148.419 961.972 -135.728 949.956 -120.425 942.307C-105.122 934.658 -87.8949 931.718 -70.9213 933.859C-53.9478 936.001 -37.9905 943.128 -25.0673 954.338C-12.1441 965.549 -2.83544 980.34 1.68151 996.841C6.19843 1013.34 5.72091 1030.81 0.309319 1047.04C-6.96975 1068.79 -22.5781 1086.76 -43.0915 1097.01C-63.6048 1107.27 -87.348 1108.97 -109.112 1101.74Z" stroke="#FAF8FF"/>
</g>
</svg>
