<svg width="1440" height="1024" viewBox="0 0 1440 1024" fill="none" xmlns="http://www.w3.org/2000/svg">
<g opacity="0.2">
<path d="M-151.448 553.842L-151.771 552.876L-152.338 553.722L-163.629 570.575L-163.766 570.779L-163.688 571.011L-90.5658 789.707L-90.4518 790.048L-90.0922 790.048L126.692 790.311L126.959 790.311L127.108 790.089L138.399 773.236L138.92 772.459L137.984 772.458L-78.4402 772.196L-151.448 553.842ZM-174.172 587.758L-174.495 586.792L-175.062 587.638L-186.353 604.491L-186.489 604.695L-186.412 604.928L-113.289 823.623L-113.175 823.964L-112.816 823.965L103.968 824.227L104.235 824.227L104.384 824.005L115.675 807.152L116.196 806.375L115.261 806.374L-101.164 806.112L-174.172 587.758ZM-196.896 621.674L-197.218 620.709L-197.785 621.554L-209.076 638.407L-209.213 638.611L-209.135 638.844L-136.013 857.539L-135.899 857.88L-135.54 857.881L81.2445 858.143L81.5118 858.144L81.6605 857.922L92.9518 841.069L93.4725 840.292L92.537 840.29L-123.887 840.029L-196.896 621.674ZM-219.619 655.591L-219.941 654.624L-220.509 655.471L-231.8 672.323L-231.937 672.527L-231.859 672.76L-158.878 891.666L-158.764 892.008L-158.404 892.008L58.5214 892.06L58.7883 892.06L58.9369 891.838L70.2281 874.985L70.7494 874.207L69.8129 874.207L-146.752 874.155L-219.619 655.591Z" stroke="#BDBDBD"/>
<path d="M139.104 772.842L138.783 771.877L138.215 772.721L126.885 789.547L126.747 789.751L126.825 789.984L199.692 1009.02L199.805 1009.36L200.164 1009.37L417.201 1010.31L417.468 1010.31L417.618 1010.09L428.949 993.261L429.471 992.485L428.536 992.481L211.858 991.541L139.104 772.842ZM116.301 806.705L115.98 805.74L115.412 806.584L104.081 823.41L103.944 823.614L104.022 823.847L176.889 1042.89L177.002 1043.23L177.361 1043.23L394.398 1044.17L394.665 1044.17L394.815 1043.95L406.146 1027.12L406.668 1026.35L405.733 1026.34L189.055 1025.4L116.301 806.705ZM93.4983 840.568L93.1772 839.603L92.6091 840.447L81.2784 857.273L81.1411 857.477L81.2187 857.71L154.086 1076.75L154.199 1077.09L154.558 1077.09L371.595 1078.03L371.862 1078.03L372.012 1077.81L383.342 1060.99L383.864 1060.21L382.93 1060.21L166.252 1059.27L93.4983 840.568ZM70.6954 874.432L70.3748 873.465L69.8061 874.31L58.4753 891.136L58.3382 891.34L58.4155 891.573L131.141 1110.82L131.254 1111.16L131.614 1111.17L348.792 1111.9L349.059 1111.9L349.209 1111.68L360.539 1094.85L361.062 1094.07L360.126 1094.07L143.307 1093.34L70.6954 874.432Z" stroke="#4F4F4F"/>
<rect x="1785.05" y="1086.58" width="432" height="854" rx="72.5" transform="rotate(135 1785.05 1086.58)" stroke="#FAF8FF"/>
<rect x="1761.71" y="1078.8" width="409" height="809" rx="72.5" transform="rotate(135 1761.71 1078.8)" stroke="#FAF8FF"/>
<circle cx="1099.86" cy="705.446" r="34" transform="rotate(135 1099.86 705.446)" stroke="#FAF8FF"/>
<path d="M-96.5695 48.9985L241.062 -41.4697C255.321 -45.2903 269.979 -36.8252 273.8 -22.562L321.042 153.745C324.864 168.008 316.402 182.668 302.144 186.489L-35.4882 276.957C-49.747 280.778 -64.4045 272.312 -68.2263 258.049L-115.468 81.7421C-119.289 67.4788 -110.828 52.8191 -96.5695 48.9985Z" stroke="#F2F2F2"/>
<path d="M-79.5695 81.9985L258.062 -8.4697C272.321 -12.2903 286.979 -3.82524 290.8 10.438L338.042 186.745C341.864 201.008 333.402 215.668 319.144 219.489L-18.4882 309.957C-32.747 313.778 -47.4045 305.312 -51.2263 291.049L-98.4677 114.742C-102.289 100.479 -93.8283 85.8191 -79.5695 81.9985Z" stroke="#F2F2F2"/>
<path d="M115.827 114.25C117.681 121.168 113.37 128.367 106.152 130.301C98.9332 132.235 91.6009 128.156 89.747 121.238C87.8932 114.319 92.2039 107.121 99.4224 105.187C106.641 103.252 113.973 107.331 115.827 114.25Z" stroke="#F2F2F2"/>
<rect x="981.247" y="118.867" width="472.5" height="103.5" rx="49.25" transform="rotate(-15 981.247 118.867)" stroke="#FAF8FF" stroke-width="1.5"/>
<rect x="980.941" y="118.69" width="473" height="171" rx="49.5" transform="rotate(-15 980.941 118.69)" stroke="#FAF8FF"/>
<rect x="956.612" y="27.8935" width="287" height="63" rx="31.5" transform="rotate(-15 956.612 27.8935)" stroke="#FAF8FF"/>
</g>
</svg>
